# xmcd CD database file
#
# Track frame offsets:
#	150
#	22350
#	41925
#	64200
#	85950
#	105375
#	130950
#	153525
#	170625
#	196950
#
# Disc length: 2938 seconds
#
# Revision: 1
# Processed by: cddbd v1.5.1PL2 Copyright (c) Steve Scherf et al.
# Submitted via: freeDBTagger 0.5
#
DISCID=900b780a
DTITLE=Fayray - 光と影
DYEAR=1900
DGENRE=blues
TTITLE0=Home
TTITLE1=Pain
TTITLE2=close your eyes
TTITLE3=Nostalgia
TTITLE4=光と影
TTITLE5=波
TTITLE6=Spotlight
TTITLE7=Shame
TTITLE8=Angel
TTITLE9=愛燦燦
EXTD=Streamripper!
EXTT0=
EXTT1=
EXTT2=
EXTT3=
EXTT4=
EXTT5=
EXTT6=
EXTT7=
EXTT8=
EXTT9=
PLAYORDER=
